<svg xmlns="http://www.w3.org/2000/svg" viewBox="0 0 320 180" role="img" aria-label="국기 퀴즈">
  <defs>
    <linearGradient id="bg" x1="0" y1="0" x2="1" y2="1">
      <stop offset="0" stop-color="#0f5c8c"/>
      <stop offset="1" stop-color="#2aa38a"/>
    </linearGradient>
  </defs>
  <rect width="320" height="180" fill="url(#bg)"/>

  <!-- 깃대와 펄럭이는 깃발 (특정 나라 국기가 아닌 도안) -->
  <rect x="48" y="30" width="6" height="128" rx="3" fill="#f4f1e8"/>
  <circle cx="51" cy="28" r="6" fill="#ffe36e"/>
  <path d="M54 36 C 84 26, 104 50, 134 40 C 150 35, 160 34, 168 36 L 168 100 C 160 98, 150 99, 134 104 C 104 114, 84 90, 54 100 Z" fill="#f4f1e8"/>
  <path d="M54 58 C 84 48, 104 72, 134 62 C 150 57, 160 56, 168 58 L 168 78 C 160 76, 150 77, 134 82 C 104 92, 84 68, 54 78 Z" fill="#e8574b"/>
  <circle cx="108" cy="70" r="11" fill="#ffe36e"/>

  <!-- 4지선다 보기 -->
  <g font-family="Arial, sans-serif" font-size="14" font-weight="700" fill="#0f5c8c">
    <rect x="196" y="40" width="100" height="24" rx="6" fill="#f4f1e8"/>
    <rect x="196" y="72" width="100" height="24" rx="6" fill="#ffe36e"/>
    <rect x="196" y="104" width="100" height="24" rx="6" fill="#f4f1e8"/>
    <rect x="196" y="136" width="100" height="24" rx="6" fill="#f4f1e8"/>
    <text x="206" y="57">1</text>
    <text x="206" y="89">2 ✓</text>
    <text x="206" y="121">3</text>
    <text x="206" y="153">4</text>
  </g>
</svg>
