<svg xmlns="http://www.w3.org/2000/svg" viewBox="0 0 320 180"><defs><radialGradient id="a" cx=".35" cy=".3" r=".8"><stop offset="0" stop-color="#fff"/><stop offset=".2" stop-color="#ffd23f"/><stop offset=".85" stop-color="#e0a800"/><stop offset="1" stop-color="#7a5a00"/></radialGradient><radialGradient id="b" cx=".35" cy=".3" r=".8"><stop offset="0" stop-color="#fff"/><stop offset=".2" stop-color="#ff5c8a"/><stop offset=".85" stop-color="#e0336a"/><stop offset="1" stop-color="#6e0f2e"/></radialGradient><radialGradient id="c" cx=".35" cy=".3" r=".8"><stop offset="0" stop-color="#fff"/><stop offset=".2" stop-color="#4fd1c5"/><stop offset=".85" stop-color="#1fa89c"/><stop offset="1" stop-color="#0b4f49"/></radialGradient><radialGradient id="d" cx=".35" cy=".3" r=".8"><stop offset="0" stop-color="#fff"/><stop offset=".2" stop-color="#7f93ff"/><stop offset=".85" stop-color="#4a5fe0"/><stop offset="1" stop-color="#1c2470"/></radialGradient><pattern id="e" width="10" height="10" patternUnits="userSpaceOnUse"><path fill="#111" d="M0 0h5v5H0zM5 5h5v5H5z"/><path fill="#fff" d="M5 0h5v5H5zM0 5h5v5H0z"/></pattern></defs><path fill="#4f9d43" d="M0 0h320v180H0z"/><path fill="#58a84b" d="M40 0h40v180H40zM120 0h40v180h-40zM200 0h40v180h-40zM280 0h40v180h-40z"/><path fill="none" stroke="#2b2f3a" stroke-width="92" d="M-10 130C60 130 80 60 160 60s110 60 180 60"/><path fill="none" stroke="#fff" stroke-width="80" d="M-10 130C60 130 80 60 160 60s110 60 180 60"/><path fill="none" stroke="#e53935" stroke-dasharray="12 12" stroke-width="80" d="M-10 130C60 130 80 60 160 60s110 60 180 60"/><path fill="none" stroke="#565c67" stroke-width="66" d="M-10 130C60 130 80 60 160 60s110 60 180 60"/><path fill="url(#e)" d="M262 70h12v66h-12z" transform="rotate(14 268 103)"/><path fill="#00ffaa" fill-opacity=".25" stroke="#00ffaa" stroke-width="2" d="M108 48h46v26h-46z" transform="rotate(-20 131 61)"/><path fill="none" stroke="#d2fff0" stroke-linecap="round" stroke-linejoin="round" stroke-width="4" d="m118 66 7-6-7-6m16 6 7-6-7-6" transform="rotate(-20 131 61)"/><g fill="#000" fill-opacity=".3"><ellipse cx="203" cy="73" rx="11" ry="9"/><ellipse cx="178" cy="62" rx="11" ry="9"/><ellipse cx="183" cy="86" rx="11" ry="9"/><ellipse cx="150" cy="73" rx="11" ry="9"/></g><circle cx="200" cy="69" r="11" fill="url(#a)"/><circle cx="175" cy="58" r="11" fill="url(#b)"/><circle cx="180" cy="82" r="11" fill="url(#c)"/><circle cx="147" cy="69" r="11" fill="url(#d)"/><path fill="none" stroke="#ffd23f" stroke-linecap="round" stroke-opacity=".5" stroke-width="10" d="M160 76l26-6"/><text x="200" y="50" font-family="sans-serif" font-size="16" text-anchor="middle">👑</text></svg>
