<svg xmlns="http://www.w3.org/2000/svg" viewBox="0 0 320 180"><rect width="320" height="180" fill="#161a33"/><g fill="#c9d1ff"><circle cx="40" cy="40" r="5"/><circle cx="100" cy="40" r="5"/><circle cx="160" cy="40" r="5"/><circle cx="220" cy="40" r="5"/><circle cx="280" cy="40" r="5"/><circle cx="70" cy="80" r="5"/><circle cx="130" cy="80" r="5"/><circle cx="190" cy="80" r="5"/><circle cx="250" cy="80" r="5"/></g><g transform="rotate(25 240 125)" fill="#ffd23f"><rect x="200" y="120" width="80" height="10" rx="3"/><rect x="235" y="85" width="10" height="80" rx="3"/></g><rect x="20" y="110" width="150" height="10" rx="3" fill="#7f93ff" transform="rotate(12 20 110)"/><circle cx="80" cy="145" r="16" fill="#ff6fa3" stroke="#fff" stroke-width="3"/><g stroke="#fff" stroke-width="2"><circle cx="58" cy="62" r="10" fill="#4fd1c5"/><circle cx="118" cy="98" r="10" fill="#ff8a3d"/><circle cx="175" cy="60" r="10" fill="#a78bfa"/><circle cx="205" cy="102" r="10" fill="#ffd23f" stroke-width="3"/></g><text x="205" y="88" font-family="sans-serif" font-size="14" text-anchor="middle">👑</text><g><rect x="0" y="166" width="320" height="14" fill="#111"/><g fill="#fff"><rect x="0" y="166" width="14" height="7"/><rect x="28" y="166" width="14" height="7"/><rect x="56" y="166" width="14" height="7"/><rect x="84" y="166" width="14" height="7"/><rect x="112" y="166" width="14" height="7"/><rect x="140" y="166" width="14" height="7"/><rect x="168" y="166" width="14" height="7"/><rect x="196" y="166" width="14" height="7"/><rect x="224" y="166" width="14" height="7"/><rect x="252" y="166" width="14" height="7"/><rect x="280" y="166" width="14" height="7"/><rect x="308" y="166" width="14" height="7"/><rect x="14" y="173" width="14" height="7"/><rect x="42" y="173" width="14" height="7"/><rect x="70" y="173" width="14" height="7"/><rect x="98" y="173" width="14" height="7"/><rect x="126" y="173" width="14" height="7"/><rect x="154" y="173" width="14" height="7"/><rect x="182" y="173" width="14" height="7"/><rect x="210" y="173" width="14" height="7"/><rect x="238" y="173" width="14" height="7"/><rect x="266" y="173" width="14" height="7"/><rect x="294" y="173" width="14" height="7"/></g></g></svg>
