<svg xmlns="http://www.w3.org/2000/svg" viewBox="0 0 320 180"><defs><linearGradient id="bg" x1="0" y1="0" x2="0" y2="1"><stop offset="0" stop-color="#4a2d18"/><stop offset="1" stop-color="#23140a"/></linearGradient><radialGradient id="melon" cx=".35" cy=".3" r=".8"><stop offset="0" stop-color="#5fd068"/><stop offset="1" stop-color="#1e7a2e"/></radialGradient><radialGradient id="orange" cx=".35" cy=".3" r=".8"><stop offset="0" stop-color="#ffb347"/><stop offset="1" stop-color="#e06600"/></radialGradient><radialGradient id="apple" cx=".35" cy=".3" r=".8"><stop offset="0" stop-color="#ff6b6b"/><stop offset="1" stop-color="#b3121f"/></radialGradient><linearGradient id="blade" x1="0" y1="1" x2="1" y2="0"><stop offset="0" stop-color="#fff" stop-opacity="0"/><stop offset=".6" stop-color="#dfe8f3"/><stop offset="1" stop-color="#fff"/></linearGradient></defs><rect width="320" height="180" fill="url(#bg)"/><g fill="#000" opacity=".3"><rect x="80" width="3" height="180"/><rect x="190" width="3" height="180"/><rect x="290" width="3" height="180"/></g><g fill="#ff3355" opacity=".55"><circle cx="118" cy="104" r="14"/><circle cx="96" cy="88" r="5"/><circle cx="140" cy="122" r="6"/><circle cx="104" cy="126" r="4"/></g><g transform="rotate(-25 110 100)"><path d="M72 100a38 30 0 0 0 76 0z" fill="url(#melon)"/><ellipse cx="110" cy="100" rx="36" ry="10" fill="#ff4f6d" stroke="#1e7a2e" stroke-width="4"/></g><g transform="translate(18 -18) rotate(-25 110 100)"><path d="M72 96a38 30 0 0 1 76 0z" fill="url(#melon)"/><ellipse cx="110" cy="96" rx="36" ry="10" fill="#ff4f6d" stroke="#1e7a2e" stroke-width="4"/><g fill="#2a1a1a"><ellipse cx="96" cy="96" rx="2.5" ry="1.6"/><ellipse cx="110" cy="98" rx="2.5" ry="1.6"/><ellipse cx="124" cy="96" rx="2.5" ry="1.6"/></g></g><circle cx="238" cy="62" r="28" fill="url(#orange)"/><ellipse cx="226" cy="50" rx="6" ry="10" fill="#fff" opacity=".4" transform="rotate(-35 226 50)"/><circle cx="252" cy="134" r="24" fill="url(#apple)"/><path d="M252 112q2-10 6-14" stroke="#5a3a1a" stroke-width="4" stroke-linecap="round" fill="none"/><ellipse cx="264" cy="104" rx="9" ry="4" fill="#3fae3a" transform="rotate(-25 264 104)"/><path d="M30 160Q120 90 215 18" stroke="#9fb3cc" stroke-opacity=".35" stroke-width="16" stroke-linecap="round" fill="none"/><path d="M30 160Q120 90 215 18" stroke="url(#blade)" stroke-width="6" stroke-linecap="round" fill="none"/><g fill="#ffe36e" stroke="#1a0f08" stroke-width="3" paint-order="stroke" font-family="sans-serif" font-weight="900" font-size="22"><text x="186" y="112">10 COMBO</text></g></svg>
